<svg width="111.018066" height="111.018066" viewBox="0 0 111.018 111.018" fill="none" xmlns="http://www.w3.org/2000/svg" xmlns:xlink="http://www.w3.org/1999/xlink">
	<desc>
			Created with Pixso.
	</desc>
	<defs>
		<filter id="filter_5_2359_dd" x="0.000000" y="0.000000" width="111.018066" height="111.018066" filterUnits="userSpaceOnUse" color-interpolation-filters="sRGB">
			<feFlood flood-opacity="0" result="BackgroundImageFix"/>
			<feColorMatrix in="SourceAlpha" type="matrix" values="0 0 0 0 0 0 0 0 0 0 0 0 0 0 0 0 0 0 127 0" result="hardAlpha"/>
			<feOffset dx="0" dy="4.83482"/>
			<feGaussianBlur stdDeviation="3.22321"/>
			<feComposite in2="hardAlpha" operator="out" k2="-1" k3="1"/>
			<feColorMatrix type="matrix" values="0 0 0 0 0.19608 0 0 0 0 0.19608 0 0 0 0 0.27843 0 0 0 0.059 0"/>
			<feBlend mode="normal" in2="BackgroundImageFix" result="effect_dropShadow_1"/>
			<feColorMatrix in="SourceAlpha" type="matrix" values="0 0 0 0 0 0 0 0 0 0 0 0 0 0 0 0 0 0 127 0" result="hardAlpha"/>
			<feOffset dx="0" dy="4.83482"/>
			<feGaussianBlur stdDeviation="1.61161"/>
			<feComposite in2="hardAlpha" operator="out" k2="-1" k3="1"/>
			<feColorMatrix type="matrix" values="0 0 0 0 0.19608 0 0 0 0 0.19608 0 0 0 0 0.27843 0 0 0 0.078 0"/>
			<feBlend mode="normal" in2="effect_dropShadow_1" result="effect_dropShadow_2"/>
			<feBlend mode="normal" in="SourceGraphic" in2="effect_dropShadow_2" result="shape"/>
		</filter>
		<filter id="filter_5_2360_dd" x="9.669678" y="4.834961" width="91.678711" height="91.678711" filterUnits="userSpaceOnUse" color-interpolation-filters="sRGB">
			<feFlood flood-opacity="0" result="BackgroundImageFix"/>
			<feColorMatrix in="SourceAlpha" type="matrix" values="0 0 0 0 0 0 0 0 0 0 0 0 0 0 0 0 0 0 127 0" result="hardAlpha"/>
			<feOffset dx="0" dy="9.66964"/>
			<feGaussianBlur stdDeviation="6.44643"/>
			<feComposite in2="hardAlpha" operator="out" k2="-1" k3="1"/>
			<feColorMatrix type="matrix" values="0 0 0 0 0.19608 0 0 0 0 0.19608 0 0 0 0 0.27843 0 0 0 0.059 0"/>
			<feBlend mode="normal" in2="BackgroundImageFix" result="effect_dropShadow_1"/>
			<feColorMatrix in="SourceAlpha" type="matrix" values="0 0 0 0 0 0 0 0 0 0 0 0 0 0 0 0 0 0 127 0" result="hardAlpha"/>
			<feOffset dx="0" dy="9.66964"/>
			<feGaussianBlur stdDeviation="3.22321"/>
			<feComposite in2="hardAlpha" operator="out" k2="-1" k3="1"/>
			<feColorMatrix type="matrix" values="0 0 0 0 0.19608 0 0 0 0 0.19608 0 0 0 0 0.27843 0 0 0 0.078 0"/>
			<feBlend mode="normal" in2="effect_dropShadow_1" result="effect_dropShadow_2"/>
			<feBlend mode="normal" in="SourceGraphic" in2="effect_dropShadow_2" result="shape"/>
		</filter>
	</defs>
	<g filter="url(#filter_5_2359_dd)">
		<g filter="url(#filter_5_2360_dd)">
			<circle id="Ellipse 7" cx="55.509033" cy="41.004639" r="26.500000" fill="#FB7206" fill-opacity="1.000000"/>
		</g>
		<rect id="vuesax/linear/home-2" width="28.000000" height="29.000000" transform="translate(42.009033 24.504639) rotate(-0.000000)" fill="#FFFFFF" fill-opacity="0"/>
		<path id="Vector" d="M52.53 27.93L46.24 33.01C45.19 33.85 44.34 35.65 44.34 37.02L44.34 45.97C44.34 48.78 46.54 51.07 49.25 51.07L62.76 51.07C65.47 51.07 67.67 48.78 67.67 45.98L67.67 37.19C67.67 35.73 66.73 33.85 65.57 33.02L58.36 27.79C56.73 26.6 54.1 26.66 52.53 27.93Z" fill="#FFFFFF" fill-opacity="1.000000" fill-rule="nonzero"/>
		<path id="Vector" d="M46.24 33.01C45.19 33.85 44.34 35.65 44.34 37.02L44.34 45.97C44.34 48.78 46.54 51.07 49.25 51.07L62.76 51.07C65.47 51.07 67.67 48.78 67.67 45.98L67.67 37.19C67.67 35.73 66.73 33.85 65.57 33.02L58.36 27.79C56.73 26.6 54.1 26.66 52.53 27.93L46.24 33.01Z" stroke="#FFFFFF" stroke-opacity="1.000000" stroke-width="1.500000" stroke-linejoin="round"/>
		<path id="Vector" d="M59.63 42.61L56 42.61L59.63 42.61ZM59.61 41.88L59.63 41.86C60.05 41.86 60.38 42.19 60.38 42.61C60.38 43.03 60.05 43.36 59.63 43.36L59.61 43.34L59.61 41.88ZM56.02 43.34L56 43.36C55.58 43.36 55.25 43.03 55.25 42.61C55.25 42.19 55.58 41.86 56 41.86L56.02 41.88L56.02 43.34Z" fill="#FFFFFF" fill-opacity="1.000000" fill-rule="nonzero"/>
		<path id="Vector" d="M59.63 42.61L56 42.61" stroke="#FFFFFF" stroke-opacity="1.000000" stroke-width="1.500000" stroke-linejoin="round" stroke-linecap="round"/>
		<g opacity="0.000000">
			<path id="Vector" d="M42 24.5L70 24.5L70 53.5L42 53.5L42 24.5Z" fill="#FFFFFF" fill-opacity="1.000000" fill-rule="evenodd"/>
		</g>
	</g>
</svg>
