<svg width="24.000000" height="24.000000" viewBox="0 0 24 24" fill="none" xmlns="http://www.w3.org/2000/svg" xmlns:xlink="http://www.w3.org/1999/xlink">
	<desc>
			Created with Pixso.
	</desc>
	<defs/>
	<rect id="Iconly/Sharp/Light/Ticket Star" rx="-0.500000" width="23.000000" height="23.000000" transform="translate(0.500000 0.500000)" fill="#FFFFFF" fill-opacity="0"/>
	<path id="Stroke 7" d="M21 19L21 13.88C19.91 13.88 19.04 13.04 19.04 12C19.04 10.95 19.91 10.11 21 10.11L21 5L3 5L3 10.19C4.08 10.19 4.95 10.95 4.95 12C4.95 13.04 4.08 13.88 3 13.88L3 19L21 19Z" fill="#6979F8" fill-opacity="1.000000" fill-rule="evenodd"/>
	<path id="Stroke 7" d="M21 13.88C19.91 13.88 19.04 13.04 19.04 12C19.04 10.95 19.91 10.11 21 10.11L21 5L3 5L3 10.19C4.08 10.19 4.95 10.95 4.95 12C4.95 13.04 4.08 13.88 3 13.88L3 19L21 19L21 13.88Z" stroke="#484C52" stroke-opacity="1.000000" stroke-width="1.000000"/>
	<path id="Star 2" d="M11.99 8.67L11.01 10.53L8.93 10.89L10.4 12.4L10.1 14.49L11.99 13.56L13.89 14.49L13.59 12.4L15.05 10.89L12.98 10.53L11.99 8.67Z" fill="#FFFFFF" fill-opacity="1.000000" fill-rule="evenodd"/>
	<path id="Star 2" d="M11.01 10.53L8.93 10.89L10.4 12.4L10.1 14.49L11.99 13.56L13.89 14.49L13.59 12.4L15.05 10.89L12.98 10.53L11.99 8.67L11.01 10.53Z" stroke="#FFFFFF" stroke-opacity="1.000000" stroke-width="1.500000"/>
</svg>
