<svg width="24.000000" height="24.000000" viewBox="0 0 24 24" fill="none" xmlns="http://www.w3.org/2000/svg" xmlns:xlink="http://www.w3.org/1999/xlink">
	<desc>
			Created with Pixso.
	</desc>
	<defs/>
	<rect id="Iconly/Sharp/Light/Ticket Star" rx="-0.500000" width="23.000000" height="23.000000" transform="translate(0.500000 0.500000)" fill="#FFFFFF" fill-opacity="0"/>
	<path id="Stroke 7" d="M21.25 13.98C20.13 13.98 19.23 13.1 19.23 12C19.23 10.89 20.13 10.01 21.25 10.01L21.25 4.6L2.75 4.6L2.75 10.08C3.86 10.08 4.76 10.89 4.76 12C4.76 13.1 3.86 13.98 2.75 13.98L2.75 19.4L21.25 19.4L21.25 13.98Z" stroke="#484C52" stroke-opacity="1.000000" stroke-width="1.000000"/>
	<path id="Star 2" d="M11.99 8.67L11.01 10.53L8.93 10.89L10.4 12.4L10.1 14.49L11.99 13.56L13.89 14.49L13.59 12.4L15.05 10.89L12.98 10.53L11.99 8.67Z" fill="#FFFFFF" fill-opacity="1.000000" fill-rule="evenodd"/>
	<path id="Star 2" d="M11.01 10.53L8.93 10.89L10.4 12.4L10.1 14.49L11.99 13.56L13.89 14.49L13.59 12.4L15.05 10.89L12.98 10.53L11.99 8.67L11.01 10.53Z" stroke="#858585" stroke-opacity="1.000000" stroke-width="1.500000"/>
</svg>
