<svg width="24.000000" height="24.000000" viewBox="0 0 24 24" fill="none" xmlns="http://www.w3.org/2000/svg" xmlns:xlink="http://www.w3.org/1999/xlink">
	<desc>
			Created with Pixso.
	</desc>
	<defs/>
	<path id="Vector" d="M12 12C9.23 12 7 9.76 7 7C7 4.23 9.23 2 12 2C14.76 2 17 4.23 17 7C17 9.76 14.76 12 12 12Z" stroke="#6979F8" stroke-opacity="1.000000" stroke-width="2.000000" stroke-linejoin="round"/>
	<path id="Vector" d="M20.58 22C20.58 18.12 16.74 15 12 15C7.26 15 3.4 18.12 3.4 22" stroke="#6979F8" stroke-opacity="1.000000" stroke-width="2.000000" stroke-linejoin="round" stroke-linecap="round"/>
	<g opacity="0.000000">
		<path id="Vector" d="M24 0L0 0L0 24L24 24L24 0ZM1 23L1 1L23 1L23 23L1 23Z" fill="#6979F8" fill-opacity="1.000000" fill-rule="evenodd"/>
	</g>
</svg>
