<svg width="24.000000" height="24.000000" viewBox="0 0 24 24" fill="none" xmlns="http://www.w3.org/2000/svg" xmlns:xlink="http://www.w3.org/1999/xlink">
	<desc>
			Created with Pixso.
	</desc>
	<defs/>
	<path d="M8.32 15.53L15.26 15.53L15.26 17.03L8.32 17.03L8.32 15.53Z" fill="#6979F8" fill-opacity="1.000000" fill-rule="evenodd"/>
	<path d="M8.32 11.75L13.2 11.75L13.2 13.25L8.32 13.25L8.32 11.75Z" fill="#6979F8" fill-opacity="1.000000" fill-rule="evenodd"/>
	<path d="M4 2L15.31 2L20.84 7.76L20.84 22L4 22L4 2ZM5.5 3.5L5.5 20.5L19.34 20.5L19.34 8.37L14.67 3.5L5.5 3.5Z" fill="#6979F8" fill-opacity="1.000000" fill-rule="evenodd"/>
	<path d="M15.26 2.55L15.26 7.9L20.37 7.9L20.37 9.4L13.76 9.4L13.76 2.55L15.26 2.55Z" fill="#6979F8" fill-opacity="1.000000" fill-rule="evenodd"/>
</svg>
