<svg width="24.000000" height="24.000000" viewBox="0 0 24 24" fill="none" xmlns="http://www.w3.org/2000/svg" xmlns:xlink="http://www.w3.org/1999/xlink">
	<desc>
			Created with Pixso.
	</desc>
	<defs/>
	<path id="icon" d="M23 15.7C23 20.76 20.97 22 14.6 22L11.45 22L11.45 18.85L13.55 18.85L13.55 19.89L14.89 19.89L15.52 19.89C19.22 19.83 20.46 19.35 20.79 17.34C20.2 17.63 19.52 17.79 18.79 17.79C17.64 17.79 16.7 16.85 16.7 15.7L16.7 10.45C16.7 9.29 17.64 8.35 18.79 8.35C19.47 8.35 20.13 8.51 20.72 8.81C19.98 5.49 16.98 3.1 12.5 3.1C8.01 3.1 5.01 5.49 4.27 8.81C4.86 8.51 5.52 8.35 6.19 8.35C7.35 8.35 8.3 9.29 8.3 10.45L8.3 15.7C8.3 16.85 7.35 17.79 6.19 17.79C3.87 17.79 2 16.13 2 13.6L2 10.45C2 5.14 6.14 1 12.5 1C18.85 1 23 5.14 23 10.45L23 15.7ZM6.19 10.45L6.05 10.45C5.01 10.52 4.1 11.35 4.1 12.55L4.1 13.6C4.1 14.91 4.98 15.7 6.19 15.7L6.19 10.45ZM18.79 15.7L18.79 10.45L18.94 10.45C19.98 10.52 20.89 11.35 20.89 12.55L20.89 13.6C20.89 14.91 20.01 15.7 18.79 15.7Z" fill="#6979F8" fill-opacity="1.000000" fill-rule="evenodd"/>
</svg>
