<svg width="28.000000" height="24.000000" viewBox="0 0 28 24" fill="none" xmlns="http://www.w3.org/2000/svg" xmlns:xlink="http://www.w3.org/1999/xlink">
	<desc>
			Created with Pixso.
	</desc>
	<defs/>
	<path id="icon" d="M14 2L28 9.04L28 10.76L26.72 11.38L26.72 17.36L27.72 21.35L23.18 21.35L24.18 17.35L24.18 12.64L22.9 13.27L22.9 16.87C22.9 20.02 17.75 22 14 22C10.33 22 5.32 20.11 5.09 17.09L5.09 16.87L5.09 13.22L0 10.69L0 9.04L14 2ZM7.63 14.49L7.63 16.87C7.63 17.93 11.55 19.43 14 19.43C16.36 19.43 20.11 18.02 20.35 16.97L20.36 16.87L20.36 14.52L13.99 17.66L7.63 14.49ZM4.06 9.86L14 4.86L18.31 7.03L13.59 8.61L14.4 11.04L21.53 8.65L23.98 9.88L14 14.8L4.06 9.86Z" fill="#6979F8" fill-opacity="1.000000" fill-rule="evenodd"/>
</svg>
