<svg width="18" height="21" viewBox="0 0 18 21" fill="none" xmlns="http://www.w3.org/2000/svg">
<path fill-rule="evenodd" clip-rule="evenodd" d="M0.5 8.495C0.5 3.89514 4.34388 0.177246 8.99345 0.177246C13.6561 0.177246 17.5 3.89514 17.5 8.495C17.5 10.8129 16.657 12.9649 15.2695 14.7888C13.7388 16.8008 11.8522 18.5537 9.72854 19.9297C9.24251 20.2477 8.80387 20.2717 8.27045 19.9297C6.13474 18.5537 4.24809 16.8008 2.7305 14.7888C1.34198 12.9649 0.5 10.8129 0.5 8.495ZM6.19423 8.754C6.19423 10.295 7.45166 11.5069 8.99345 11.5069C10.5362 11.5069 11.8058 10.295 11.8058 8.754C11.8058 7.22504 10.5362 5.95408 8.99345 5.95408C7.45166 5.95408 6.19423 7.22504 6.19423 8.754Z" fill="#FB7206"/>
</svg>
