<svg width="24" height="24" viewBox="0 0 24 24" fill="none" xmlns="http://www.w3.org/2000/svg">
<mask id="mask0_1_1817" style="mask-type:luminance" maskUnits="userSpaceOnUse" x="2" y="5" width="13" height="16">
<path fill-rule="evenodd" clip-rule="evenodd" d="M2.00012 5H14.0201V20.5019H2.00012V5Z" fill="white"/>
</mask>
<g mask="url(#mask0_1_1817)">
<path fill-rule="evenodd" clip-rule="evenodd" d="M11.2081 6.50589C10.3401 6.50589 9.23011 7.38689 8.30611 8.12089C7.41711 8.82589 6.71511 9.38389 6.01511 9.43589C5.70511 9.45789 5.43911 9.46789 5.20511 9.47589C4.45811 9.50089 4.26911 9.51789 3.93211 9.79589C3.49011 10.1589 3.49711 11.6419 3.50111 12.5269L3.50211 12.7479V12.7519L3.50111 12.9729C3.49711 13.8589 3.49011 15.3419 3.93211 15.7049C4.26811 15.9829 4.45711 15.9989 5.20211 16.0259C5.43711 16.0329 5.70411 16.0429 6.01511 16.0659C6.71511 16.1169 7.41711 16.6749 8.30611 17.3799C9.40911 18.2549 10.7751 19.3399 11.6811 18.8889C12.4391 18.2319 12.5201 16.4899 12.5201 12.7499C12.5201 9.00989 12.4391 7.26889 11.6811 6.61089C11.5341 6.53789 11.3751 6.50589 11.2081 6.50589ZM11.2181 20.5019C9.82711 20.5019 8.44811 19.4069 7.37411 18.5549C6.88911 18.1699 6.15611 17.5879 5.90311 17.5619C5.61611 17.5399 5.36811 17.5309 5.14911 17.5249C4.35111 17.4959 3.72011 17.4749 2.97811 16.8629C1.98611 16.0459 1.99511 14.3379 2.00111 12.9659L2.00211 12.7499L2.00111 12.5339C1.99511 11.1619 1.98611 9.45489 2.97811 8.63789C3.72111 8.02589 4.35311 8.00389 5.15311 7.97689C5.37111 7.96889 5.61811 7.96089 5.90511 7.93989C6.15611 7.91289 6.88911 7.33089 7.37411 6.94589C8.77311 5.83489 10.6891 4.31789 12.4741 5.33489C12.5051 5.35389 12.5361 5.37389 12.5641 5.39689C13.9581 6.49189 14.0201 8.55689 14.0201 12.7499C14.0201 16.9439 13.9581 19.0089 12.5641 20.1049C12.5361 20.1269 12.5051 20.1479 12.4731 20.1659C12.0591 20.4019 11.6381 20.5019 11.2181 20.5019Z" fill="#FB7206"/>
</g>
<mask id="mask1_1_1817" style="mask-type:luminance" maskUnits="userSpaceOnUse" x="19" y="5" width="4" height="15">
<path fill-rule="evenodd" clip-rule="evenodd" d="M19.0839 5.90332H22.484V19.5956H19.0839V5.90332Z" fill="white"/>
</mask>
<g mask="url(#mask1_1_1817)">
<path fill-rule="evenodd" clip-rule="evenodd" d="M19.8336 19.5956C19.6856 19.5956 19.5366 19.5516 19.4056 19.4606C19.0656 19.2246 18.9816 18.7576 19.2186 18.4166C21.6116 14.9766 21.6116 10.5276 19.2186 7.08164C18.9816 6.74164 19.0656 6.27464 19.4066 6.03764C19.7466 5.80064 20.2126 5.88564 20.4496 6.22664C23.1626 10.1306 23.1626 15.3736 20.4496 19.2746C20.3036 19.4836 20.0706 19.5956 19.8336 19.5956Z" fill="#FB7206"/>
</g>
<path fill-rule="evenodd" clip-rule="evenodd" d="M17.3306 17.1864C17.2036 17.1864 17.0756 17.1544 16.9576 17.0864C16.5986 16.8804 16.4746 16.4214 16.6806 16.0634C17.8516 14.0224 17.8516 11.4844 16.6806 9.43744C16.4746 9.07744 16.5996 8.61944 16.9586 8.41344C17.3186 8.21144 17.7756 8.33244 17.9816 8.69144C19.4166 11.1994 19.4166 14.3094 17.9816 16.8094C17.8426 17.0514 17.5906 17.1864 17.3306 17.1864Z" fill="#FB7206"/>
</svg>
