<svg width="24" height="24" viewBox="0 0 24 24" fill="none" xmlns="http://www.w3.org/2000/svg">
<path fill-rule="evenodd" clip-rule="evenodd" d="M11.7869 7.70723L11.8343 7.70518V3.80117C11.8343 3.09775 12.7339 2.7371 13.277 3.22279L22.4445 11.4216C22.7967 11.7366 22.7967 12.2634 22.4445 12.5784L13.277 20.7772C12.7339 21.2629 11.8343 20.9022 11.8343 20.1988V16.3252L11.7874 16.3266C11.4855 16.3357 11.1939 16.3497 10.9122 16.3684L10.7829 16.3774L10.6549 16.3871C10.358 16.4105 10.0721 16.4395 9.79661 16.4742L9.67917 16.4894C8.37481 16.6631 7.30506 16.9665 6.38503 17.4051L6.33835 17.4275C5.51347 17.8271 4.79244 18.3344 4.04069 19.047L3.96665 19.1178C3.94193 19.1416 3.91717 19.1656 3.89237 19.1899L3.81785 19.2633L3.74303 19.3382C3.71805 19.3634 3.69301 19.3888 3.66791 19.4145L3.59245 19.4921L3.51662 19.5713L3.47855 19.6114L3.40212 19.6927C3.31269 19.7885 3.22236 19.8873 3.13093 19.9894L3.05229 20.0776L2.97308 20.1675L2.89327 20.2589L2.81284 20.352L2.77238 20.3992L2.69096 20.4948L2.64999 20.5432L2.56751 20.6413L2.526 20.691C2.02636 21.2904 1 20.9593 1 20.1988C1 16.7476 1.69332 13.8703 3.27696 11.7081C5.05872 9.27539 7.87949 7.88936 11.7869 7.70723ZM20.6194 11.9997L13.5414 5.66955V8.48597C13.5414 8.92757 13.1593 9.28555 12.688 9.28555C8.85148 9.28555 6.26819 10.4505 4.68453 12.6127C3.68062 13.9833 3.07964 15.7506 2.83499 17.8563L2.82756 17.9214L2.87827 17.8735C3.71778 17.0848 4.54686 16.501 5.50656 16.0302L5.55474 16.0067C7.37627 15.1244 9.61661 14.714 12.688 14.714C13.1593 14.714 13.5414 15.0719 13.5414 15.5135V18.3299L20.6194 11.9997Z" fill="#5B5C5D"/>
</svg>