<svg width="24" height="24" viewBox="0 0 24 24" fill="none" xmlns="http://www.w3.org/2000/svg">
<g clip-path="url(#clip0_214_106)">
<path d="M8.25 23.2612H2.25C1.85218 23.2612 1.47064 23.1032 1.18934 22.8219C0.908035 22.5406 0.75 22.1591 0.75 21.7612V2.26123C0.75 1.86341 0.908035 1.48187 1.18934 1.20057C1.47064 0.919266 1.85218 0.76123 2.25 0.76123H12.879C13.2765 0.761315 13.6578 0.919212 13.939 1.20023L19.811 7.07223C20.092 7.35343 20.2499 7.73468 20.25 8.13223V8.26123" stroke="#FB7206" stroke-width="1.5" stroke-linecap="round" stroke-linejoin="round"/>
<path d="M12.75 0.76123V6.76123C12.75 7.15905 12.908 7.54059 13.1893 7.82189C13.4706 8.10319 13.8522 8.26123 14.25 8.26123H20.25" stroke="#FB7206" stroke-width="1.5" stroke-linecap="round" stroke-linejoin="round"/>
<path d="M8.169 9.61914L6.037 12.4611C5.9725 12.547 5.89031 12.6181 5.79598 12.6694C5.70165 12.7208 5.59739 12.7513 5.49025 12.7589C5.38311 12.7665 5.27559 12.751 5.17496 12.7134C5.07434 12.6758 4.98296 12.6171 4.907 12.5411L3.75 11.3851" stroke="#FB7206" stroke-width="1.5" stroke-linecap="round" stroke-linejoin="round"/>
<path d="M8.169 16.3691L6.037 19.2111C5.9725 19.297 5.89031 19.3681 5.79598 19.4194C5.70165 19.4708 5.59739 19.5013 5.49025 19.5089C5.38311 19.5165 5.27559 19.501 5.17496 19.4634C5.07434 19.4258 4.98296 19.3671 4.907 19.2911L3.75 18.1341" stroke="#FB7206" stroke-width="1.5" stroke-linecap="round" stroke-linejoin="round"/>
<path d="M11.25 12.7612H15" stroke="#FB7206" stroke-width="1.5" stroke-linecap="round" stroke-linejoin="round"/>
<path d="M22.631 14.8802L15 22.5112L11.25 23.2612L12 19.5112L19.631 11.8802C20.0276 11.4836 20.5656 11.2607 21.1265 11.2607C21.6874 11.2607 22.2254 11.4836 22.622 11.8802L22.631 11.8892C23.0276 12.2858 23.2504 12.8238 23.2504 13.3847C23.2504 13.9456 23.0276 14.4835 22.631 14.8802V14.8802Z" stroke="#FB7206" stroke-width="1.5" stroke-linecap="round" stroke-linejoin="round"/>
</g>
<defs>
<clipPath id="clip0_214_106">
<rect width="24" height="24" fill="white"/>
</clipPath>
</defs>
</svg>
