<svg width="34.000000" height="33.000000" viewBox="0 0 34 33" fill="none" xmlns="http://www.w3.org/2000/svg" xmlns:xlink="http://www.w3.org/1999/xlink">
	<desc>
			Created with Pixso.
	</desc>
	<defs/>
	<path id="icon" d="M11.9 0C15.65 0 18.7 2.95 18.7 6.6C18.7 10.24 15.65 13.2 11.9 13.2C8.14 13.2 5.1 10.24 5.1 6.6C5.1 2.95 8.14 0 11.9 0ZM11.9 3.3C10.02 3.3 8.5 4.77 8.5 6.6C8.5 8.42 10.02 9.89 11.9 9.89C13.77 9.89 15.3 8.42 15.3 6.6C15.3 4.77 13.77 3.3 11.9 3.3ZM13.6 14.9C13.05 14.86 12.48 14.85 11.9 14.85C9.52 14.85 7.48 15.12 5.77 15.68C2.32 16.81 -0.01 19.96 0 23.5L0 24.75L3.4 24.75L3.4 23.5L3.41 23.18C3.54 21.19 4.89 19.45 6.86 18.81C8.19 18.37 9.87 18.14 11.9 18.14C12.49 18.14 13.06 18.16 13.6 18.2L13.6 14.9ZM34 18.14C33.91 16.54 32.3 14.85 25.5 14.85C18.7 14.85 17 16.54 17 18.14L17 26.39C17 28.99 19.83 31.19 25.5 33C31.15 31.5 34 29 34 26.39L34 18.14ZM25.5 18.14C23.14 18.14 21.51 18.37 20.58 18.69L20.4 18.76L20.4 26.39C20.4 26.57 20.54 26.83 21.06 27.26L21.24 27.41C22.05 28.04 23.29 28.68 24.95 29.31L25.58 29.53L25.63 29.52C27.28 29 28.56 28.4 29.45 27.76L29.7 27.56C30.3 27.08 30.54 26.72 30.59 26.48L30.6 26.39L30.6 18.78L30.56 18.76C29.74 18.42 28.23 18.18 25.99 18.15L25.5 18.14Z" fill="#FB7206" fill-opacity="1.000000" fill-rule="evenodd"/>
</svg>
