<svg width="32.000000" height="32.000000" viewBox="0 0 32 32" fill="none" xmlns="http://www.w3.org/2000/svg" xmlns:xlink="http://www.w3.org/1999/xlink">
	<desc>
			Created with Pixso.
	</desc>
	<defs/>
	<rect id="Iconly/Regular/Light/Chat" width="32.000000" height="32.000000" fill="#FFFFFF" fill-opacity="0"/>
	<path id="Stroke 4" d="M25.42 25.42C21.35 29.5 15.31 30.38 10.38 28.09C9.65 27.8 9.05 27.56 8.48 27.56C6.9 27.57 4.93 29.11 3.91 28.08C2.88 27.06 4.42 25.09 4.42 23.5C4.42 22.93 4.19 22.34 3.9 21.61C1.61 16.67 2.49 10.64 6.57 6.56C11.77 1.36 20.22 1.36 25.42 6.56C30.63 11.78 30.63 20.22 25.42 25.42Z" fill="#FB7206" fill-opacity="1.000000" fill-rule="evenodd"/>
	<path id="Stroke 11" d="M20.59 15.88L21.92 15.88" stroke="#FFFFFF" stroke-opacity="1.000000" stroke-width="2.000000" stroke-linejoin="round" stroke-linecap="round"/>
	<path id="Stroke 13" d="M15.24 15.88L16.57 15.88" stroke="#FFFFFF" stroke-opacity="1.000000" stroke-width="2.000000" stroke-linejoin="round" stroke-linecap="round"/>
	<path id="Stroke 15" d="M9.9 15.88L11.23 15.88" stroke="#FFFFFF" stroke-opacity="1.000000" stroke-width="2.000000" stroke-linejoin="round" stroke-linecap="round"/>
</svg>
