<svg width="32.000000" height="32.000000" viewBox="0 0 32 32" fill="none" xmlns="http://www.w3.org/2000/svg" xmlns:xlink="http://www.w3.org/1999/xlink">
	<desc>
			Created with Pixso.
	</desc>
	<defs/>
	<path id="Ellipse 112" d="M18 22C18 26.41 14.41 30 10 30C5.58 30 2 26.41 2 22C2 17.58 5.58 14 10 14C14.41 14 18 17.58 18 22Z" fill="#C5DDD4" fill-opacity="1.000000" fill-rule="nonzero"/>
	<path id="Ellipse 111" d="M30 15C30 22.17 24.17 28 17 28C9.82 28 4 22.17 4 15C4 7.82 9.82 2 17 2C24.17 2 30 7.82 30 15Z" fill="#FB7206" fill-opacity="1.000000" fill-rule="nonzero"/>
	<path id="Vector 33" d="M16.63 9L16.63 15.36L23.27 15.36" stroke="#FFFFFF" stroke-opacity="1.000000" stroke-width="2.000000" stroke-linejoin="round" stroke-linecap="round"/>
	<path id="Vector 34" d="M16.63 22L16.63 15.63L10 15.63" stroke="#FFFFFF" stroke-opacity="1.000000" stroke-width="2.000000" stroke-linejoin="round" stroke-linecap="round"/>
</svg>
