<svg width="38.723175" height="32.000000" viewBox="0 0 38.7232 32" fill="none" xmlns="http://www.w3.org/2000/svg" xmlns:xlink="http://www.w3.org/1999/xlink">
	<desc>
			Created with Pixso.
	</desc>
	<defs/>
	<rect id="Rectangle 602" x="5.000000" y="11.000000" rx="1.000000" width="12.000000" height="2.000000" fill="#FFFFFF" fill-opacity="1.000000"/>
	<rect id="Rectangle 603" x="5.000000" y="16.000000" rx="1.000000" width="8.000000" height="2.000000" fill="#FFFFFF" fill-opacity="1.000000"/>
	<circle id="Ellipse 109" cx="23.000000" cy="23.000000" r="7.000000" fill="#C5DDD4" fill-opacity="1.000000"/>
	<circle id="Ellipse 110" cx="15.000000" cy="15.000000" r="13.000000" fill="#FB7206" fill-opacity="1.000000"/>
	<rect id="Rectangle 604" x="7.635956" y="15.497559" rx="1.000000" width="2.000000" height="14.000000" transform="rotate(-88.699 7.635956 15.497559)" fill="#FFFFFF" fill-opacity="1.000000"/>
	<ellipse id="Ellipse 82" cx="35.991104" cy="12.000000" rx="0.008896" ry="3.000000" fill="#FF530A" fill-opacity="1.000000"/>
	<ellipse id="Ellipse 82" cx="35.991104" cy="12.000000" rx="0.508896" ry="3.500000" stroke="#FFFFFF" stroke-opacity="1.000000" stroke-width="1.000000"/>
	<path id="8" d="M38.72 16.54C38.72 17.55 37.83 18.32 36.48 18.32C35.21 18.32 34.26 17.58 34.26 16.54C34.26 15.68 34.78 15.13 35.4 14.8L35.4 14.76C34.88 14.39 34.51 13.88 34.51 13.17C34.51 12.1 35.37 11.42 36.52 11.42C37.7 11.42 38.46 12.13 38.46 13.19C38.46 13.85 38.04 14.4 37.6 14.71L37.6 14.76C38.22 15.09 38.72 15.63 38.72 16.54ZM35.69 13.17C35.69 13.8 36.2 14.11 36.9 14.39C37.22 14.05 37.38 13.67 37.38 13.27C37.38 12.73 37.05 12.35 36.49 12.35C36.05 12.35 35.69 12.64 35.69 13.17ZM35.4 16.4C35.4 17 35.89 17.38 36.51 17.38C37.08 17.38 37.49 17.07 37.49 16.49C37.49 15.8 36.87 15.51 36.01 15.16C35.65 15.45 35.4 15.9 35.4 16.4Z" fill="#FFFFFF" fill-opacity="1.000000" fill-rule="evenodd"/>
</svg>
