<svg width="24.000000" height="24.000000" viewBox="0 0 24 24" fill="none" xmlns="http://www.w3.org/2000/svg" xmlns:xlink="http://www.w3.org/1999/xlink">
	<desc>
			Created with Pixso.
	</desc>
	<defs>
		<clipPath id="clip1_2851">
			<rect rx="-0.500000" width="23.000000" height="23.000000" transform="translate(0.500000 0.500000)" fill="white" fill-opacity="0"/>
		</clipPath>
	</defs>
	<rect rx="-0.500000" width="23.000000" height="23.000000" transform="translate(0.500000 0.500000)" fill="#B9B9B9" fill-opacity="0"/>
	<g clip-path="url(#clip1_2851)">
		<path d="M21.37 10.57L21.99 10.53L21.99 7.57C21.99 6.16 20.79 5 19.32 5L4.67 5C3.2 5 2 6.16 2 7.57L2 10.49L2.51 10.61C3.51 10.83 4.21 11.69 4.21 12.69C4.21 13.69 3.51 14.55 2.51 14.77L2 14.89L2 17.42C2 18.83 3.2 20 4.67 20L19.32 20C20.79 20 22 18.83 21.99 17.43L21.99 14.89L21.37 14.85C20.21 14.77 19.32 13.83 19.32 12.71C19.32 11.59 20.23 10.65 21.37 10.57ZM20.49 16.22C18.96 15.78 17.82 14.38 17.82 12.71C17.82 11.04 18.98 9.66 20.49 9.22L20.49 7.57C20.49 7.03 20.01 6.5 19.32 6.5L4.67 6.5C3.97 6.5 3.5 7.03 3.5 7.57L3.5 9.36C4.81 9.92 5.71 11.21 5.71 12.69C5.71 14.18 4.81 15.47 3.5 16.03L3.5 17.42C3.5 17.96 3.97 18.5 4.67 18.5L19.32 18.5C20.02 18.5 20.49 17.95 20.49 17.44L20.49 16.22Z" fill="#43454F" fill-opacity="1.000000" fill-rule="evenodd"/>
		<path d="M15 9.25C15.41 9.25 15.75 9.58 15.75 10L15.75 15.5C15.75 15.91 15.41 16.25 15 16.25C14.58 16.25 14.25 15.91 14.25 15.5L14.25 10C14.25 9.58 14.58 9.25 15 9.25Z" fill="#FB7206" fill-opacity="1.000000" fill-rule="evenodd"/>
	</g>
</svg>
