<svg width="32.000000" height="32.000000" viewBox="0 0 32 32" fill="none" xmlns="http://www.w3.org/2000/svg" xmlns:xlink="http://www.w3.org/1999/xlink">
	<desc>
			Created with Pixso.
	</desc>
	<defs/>
	<path id="Rectangle 601" d="M10 3L16 3C18.76 3 21 5.23 21 8L21 13L5 13L5 8C5 5.23 7.23 3 10 3Z" fill="#C5DDD4" fill-opacity="1.000000" fill-rule="nonzero"/>
	<path id="Subtract" d="M7 7L19 7C21.7615 7 24 9.23853 24 12L24 16C19.5817 16 16 19.5818 16 24C16 25.8918 16.6567 27.6304 17.7546 29L7 29C4.23853 29 2 26.7615 2 24L2 12C2 9.23853 4.23853 7 7 7Z" clip-rule="evenodd" fill="#FB7206" fill-opacity="1.000000" fill-rule="evenodd"/>
	<path id="Ellipse 108" d="M30 24C30 27.31 27.31 30 24 30C20.68 30 18 27.31 18 24C18 20.68 20.68 18 24 18C27.31 18 30 20.68 30 24Z" fill="#FB7206" fill-opacity="1.000000" fill-rule="nonzero"/>
	<path id="Vector 32" d="M21 24.5L23 26.5L27.5 22" stroke="#FFFFFF" stroke-opacity="1.000000" stroke-width="2.000000" stroke-linejoin="round" stroke-linecap="round"/>
	<rect id="Rectangle 602" x="5.000000" y="12.000000" rx="1.000000" width="12.000000" height="2.000000" fill="#FFFFFF" fill-opacity="1.000000"/>
	<rect id="Rectangle 603" x="5.000000" y="17.000000" rx="1.000000" width="8.000000" height="2.000000" fill="#FFFFFF" fill-opacity="1.000000"/>
</svg>
