<svg width="32.000000" height="32.000000" viewBox="0 0 32 32" fill="none" xmlns="http://www.w3.org/2000/svg" xmlns:xlink="http://www.w3.org/1999/xlink">
	<desc>
			Created with Pixso.
	</desc>
	<defs/>
	<path id="icon" d="M18.04 6.83C18.04 3.61 15.43 1 12.2 1C8.98 1 6.37 3.61 6.37 6.83C6.37 10.05 8.98 12.66 12.2 12.66C15.43 12.66 18.04 10.05 18.04 6.83ZM9.29 6.83C9.29 5.22 10.59 3.91 12.2 3.91C13.81 3.91 15.12 5.22 15.12 6.83C15.12 8.44 13.81 9.75 12.2 9.75C10.59 9.75 9.29 8.44 9.29 6.83ZM12.2 14.12C14.24 14.12 15.99 14.36 17.45 14.86C18.43 15.19 19.3 15.71 20.02 16.37L17.96 18.43C17.54 18.08 17.06 17.8 16.52 17.62C15.38 17.24 13.94 17.04 12.2 17.04C10.46 17.04 9.02 17.24 7.89 17.62C6.2 18.19 5.03 19.73 4.92 21.49L4.91 21.77L4.91 22.87L2 22.87L2 21.77C1.99 18.64 3.99 15.86 6.95 14.86C8.42 14.36 10.17 14.12 12.2 14.12ZM26.79 18.5L26.79 22.87L31.16 22.87L31.16 25.79L26.79 25.79L26.79 30.16L23.87 30.16L23.87 25.79L19.5 25.79L19.5 22.87L23.87 22.87L23.87 18.5L26.79 18.5Z" fill="#FB7206" fill-opacity="1.000000" fill-rule="evenodd"/>
</svg>
